<svg width="164" height="40" viewBox="0 0 164 40" fill="none" xmlns="http://www.w3.org/2000/svg">
<g clip-path="url(#clip0_337_4076)">
<path d="M109.333 38.1766C109.333 38.5874 109.248 38.9333 109.078 39.2C108.907 39.4667 108.68 39.6685 108.396 39.8054C108.126 39.9279 107.821 40 107.509 40C107.267 40 107.033 39.9568 106.806 39.8703C106.586 39.7838 106.38 39.6757 106.195 39.5387C106.011 39.4018 105.876 39.2505 105.784 39.0919L105.769 39.0631V37.8378L106.004 38.2559C106.124 38.4577 106.266 38.6378 106.422 38.782C106.586 38.9261 106.763 39.0414 106.948 39.1207C107.125 39.2 107.317 39.236 107.516 39.236C107.715 39.236 107.885 39.2 108.034 39.1207C108.19 39.0559 108.311 38.9478 108.41 38.7964C108.503 38.645 108.552 38.4721 108.552 38.2486C108.552 37.9964 108.503 37.7946 108.403 37.6577C108.304 37.5135 108.162 37.391 107.977 37.3117C107.786 37.218 107.551 37.1315 107.282 37.0522C107.061 36.9874 106.856 36.8865 106.671 36.7712C106.479 36.6559 106.33 36.5045 106.21 36.3243C106.096 36.1369 106.039 35.9135 106.039 35.6613C106.039 35.3802 106.103 35.1279 106.231 34.9189C106.359 34.7099 106.536 34.5441 106.763 34.4216C106.983 34.3063 107.239 34.2414 107.516 34.2342H107.566C107.75 34.2342 107.921 34.2631 108.07 34.3135C108.226 34.3712 108.368 34.4432 108.496 34.5225C108.609 34.6018 108.716 34.6811 108.794 34.7532L108.836 34.7964V35.7838L108.616 35.5532C108.517 35.4378 108.41 35.3441 108.297 35.2649C108.183 35.1712 108.062 35.1063 107.928 35.0486C107.8 34.991 107.665 34.9694 107.516 34.9694C107.367 34.9694 107.253 34.9982 107.147 35.0559C107.04 35.1135 106.955 35.1856 106.898 35.2865C106.834 35.3946 106.806 35.5027 106.806 35.6252C106.806 35.755 106.834 35.8559 106.891 35.9279C106.955 36.0144 107.047 36.0865 107.154 36.1586C107.267 36.2234 107.402 36.2739 107.551 36.3171C107.793 36.3892 108.02 36.4613 108.233 36.555C108.446 36.6486 108.638 36.7712 108.801 36.9081C108.964 37.0522 109.099 37.2252 109.191 37.4342C109.291 37.6432 109.333 37.8955 109.333 38.1766Z" fill="white"/>
<path d="M95.1342 34.2342H94.4242V40H95.1342V34.2342Z" fill="white"/>
<path d="M82.71 37.8378C83.6897 37.8378 84.4848 37.0306 84.4848 36.036C84.4848 35.0414 83.6897 34.2342 82.71 34.2342H80.9351V40H81.645V38.1838L83.4696 40H84.4848L82.3124 37.8378H82.71ZM81.645 34.955H82.71C83.2992 34.955 83.7749 35.4378 83.7749 36.036C83.7749 36.6342 83.2992 37.1171 82.71 37.1171H81.645V34.955Z" fill="white"/>
<path d="M68.5215 34.2342L66.026 40H66.8152L67.4408 38.5369H69.5879L70.2136 40H70.9957L68.5215 34.2342ZM67.7679 37.809L68.5215 36.0577L69.2751 37.809H67.7607H67.7679Z" fill="white"/>
<path d="M56.4416 34.2342H54.6667V40H55.3766V37.8378H56.4416C57.4213 37.8378 58.2164 37.0306 58.2164 36.036C58.2164 35.0414 57.4213 34.2342 56.4416 34.2342ZM56.4416 37.1171H55.3766V34.955H56.4416C57.0308 34.955 57.5065 35.4378 57.5065 36.036C57.5065 36.6342 57.0308 37.1171 56.4416 37.1171Z" fill="white"/>
<path d="M44.2303 8.79279C42.1714 6.7027 39.3316 5.40541 36.2078 5.40541C29.9602 5.40541 24.8485 10.5946 24.8485 16.9369C24.8485 20.1081 26.1264 22.991 28.1853 25.0811C30.2442 27.1712 33.084 28.4685 36.2078 28.4685C39.3316 28.4685 42.1714 27.1712 44.2303 25.0811C46.2892 22.991 47.5671 20.1081 47.5671 16.9369C47.5671 13.7658 46.2892 10.8829 44.2303 8.79279ZM36.2078 25.5856C31.515 25.5856 27.6883 21.7081 27.6883 16.9369C27.6883 12.1658 31.515 8.28829 36.2078 8.28829C40.9006 8.28829 44.7273 12.1658 44.7273 16.9369C44.7273 21.7081 40.9077 25.5856 36.2078 25.5856Z" fill="white"/>
<path d="M93.9273 8.79279C91.8684 6.7027 89.0286 5.40541 85.9048 5.40541C79.6571 5.40541 74.5455 10.5946 74.5455 16.9369C74.5455 20.1081 75.8234 22.991 77.8822 25.0811C79.9411 27.1712 82.781 28.4685 85.9048 28.4685C89.0286 28.4685 91.8684 27.1712 93.9273 25.0811C95.9861 22.991 97.2641 20.1081 97.2641 16.9369C97.2641 13.7658 95.9861 10.8829 93.9273 8.79279ZM85.9048 25.5856C81.2119 25.5856 77.3853 21.7081 77.3853 16.9369C77.3853 12.1658 81.2119 8.28829 85.9048 8.28829C90.5976 8.28829 94.4242 12.1658 94.4242 16.9369C94.4242 21.7081 90.6047 25.5856 85.9048 25.5856Z" fill="white"/>
<path d="M144.831 5.40541H141.991V28.4685H144.831V5.40541Z" fill="white"/>
<path d="M144.831 1.44144C144.831 0.645355 144.195 0 143.411 0C142.627 0 141.991 0.645355 141.991 1.44144C141.991 2.23753 142.627 2.88288 143.411 2.88288C144.195 2.88288 144.831 2.23753 144.831 1.44144Z" fill="white"/>
<path d="M11.8918 5.3982C8.10061 5.3982 4.77091 7.46667 2.83983 10.609V0H0V28.4685H2.83983V23.2504C4.77091 26.3856 8.10061 28.4613 11.8918 28.4613C17.8767 28.4613 22.7186 23.2937 22.7186 16.9297C22.7186 10.5658 17.8767 5.3982 11.8918 5.3982ZM11.3238 25.5784C6.63809 25.5784 2.83983 21.7009 2.83983 16.9297C2.83983 12.1586 6.63809 8.28108 11.3238 8.28108C16.0095 8.28108 19.8078 12.1514 19.8078 16.9297C19.8078 21.7081 16.0095 25.5784 11.3238 25.5784Z" fill="white"/>
<path d="M61.5887 5.3982C57.7976 5.3982 54.4679 7.46667 52.5368 10.609V0H49.697V28.4685H52.5368V23.2504C54.4679 26.3856 57.7976 28.4613 61.5887 28.4613C67.5737 28.4613 72.4156 23.2937 72.4156 16.9297C72.4156 10.5658 67.5737 5.3982 61.5887 5.3982ZM61.0208 25.5784C56.3351 25.5784 52.5368 21.7009 52.5368 16.9297C52.5368 12.1586 56.3351 8.28108 61.0208 8.28108C65.7065 8.28108 69.5048 12.1514 69.5048 16.9297C69.5048 21.7081 65.7065 25.5784 61.0208 25.5784Z" fill="white"/>
<path fill-rule="evenodd" clip-rule="evenodd" d="M138.442 14.7748V28.4685H135.602V15.4955C135.602 13.5063 134.807 11.7045 133.522 10.4C132.237 9.0955 130.462 8.28829 128.502 8.28829C124.583 8.28829 121.403 11.5171 121.403 15.4955V28.4685H118.563V0H121.403V9.78739C123.035 7.15676 125.918 5.40541 129.212 5.40541C131.761 5.40541 134.068 6.45045 135.737 8.15135C137.405 9.84505 138.442 12.1874 138.442 14.7748Z" fill="white"/>
<path d="M159.74 8.28829C161.288 8.28829 162.743 8.70631 164 9.44865V6.25586C162.687 5.70811 161.245 5.40541 159.74 5.40541C153.493 5.40541 148.381 10.5946 148.381 16.9369C148.381 20.1081 149.659 22.991 151.718 25.0811C153.777 27.1712 156.616 28.4685 159.74 28.4685C161.245 28.4685 162.687 28.1658 164 27.618V24.4252C162.743 25.1676 161.288 25.5856 159.74 25.5856C155.04 25.5856 151.221 21.7081 151.221 16.9369C151.221 12.1658 155.04 8.28829 159.74 8.28829Z" fill="white"/>
<path d="M110.753 8.28829C112.301 8.28829 113.756 8.70631 115.013 9.44865V6.25586C113.7 5.70811 112.258 5.40541 110.753 5.40541C104.506 5.40541 99.3939 10.5946 99.3939 16.9369C99.3939 20.1081 100.672 22.991 102.731 25.0811C104.79 27.1712 107.629 28.4685 110.753 28.4685C112.258 28.4685 113.7 28.1658 115.013 27.618V24.4252C113.756 25.1676 112.301 25.5856 110.753 25.5856C106.053 25.5856 102.234 21.7081 102.234 16.9369C102.234 12.1658 106.053 8.28829 110.753 8.28829Z" fill="white"/>
</g>
<defs>
<clipPath id="clip0_337_4076">
<rect width="164" height="40" fill="white"/>
</clipPath>
</defs>
</svg>
